<?xml version="1.0" encoding="UTF-8"?>
<svg id="Camada_2" data-name="Camada 2" xmlns="http://www.w3.org/2000/svg" viewBox="0 0 428 136">
  <defs>
    <style>
      .cls-1 {
        fill: #00c950;
      }

      .cls-2 {
        fill: #fff;
      }

      .cls-3 {
        fill: #1d293d;
      }
    </style>
  </defs>
  <g id="Camada_1-2" data-name="Camada 1">
    <rect class="cls-3" width="428" height="136" rx="16" ry="16"/>
    <g>
      <path class="cls-2" d="M17.47,86.88v-9.39l27.07-33.43h-24.01v-8.72h37.72v8.09l-28.23,34.77h29.32v8.68H17.47Z"/>
      <path class="cls-2" d="M73.23,60.93l-8.96-1.62c1.01-3.61,2.74-6.28,5.2-8.02,2.46-1.73,6.12-2.6,10.97-2.6,4.41,0,7.69.52,9.84,1.56,2.16,1.04,3.67,2.37,4.55,3.97.88,1.61,1.32,4.55,1.32,8.84l-.11,11.53c0,3.28.16,5.7.47,7.26.32,1.56.91,3.23,1.78,5.01h-9.77c-.26-.66-.57-1.63-.95-2.92-.16-.59-.28-.97-.35-1.16-1.69,1.64-3.49,2.87-5.41,3.69-1.92.82-3.97,1.23-6.15,1.23-3.84,0-6.87-1.04-9.09-3.13-2.21-2.09-3.32-4.72-3.32-7.91,0-2.11.5-3.99,1.51-5.64,1.01-1.65,2.42-2.92,4.24-3.8,1.82-.88,4.44-1.65,7.86-2.3,4.62-.87,7.82-1.68,9.6-2.43v-.98c0-1.9-.47-3.25-1.41-4.06-.94-.81-2.71-1.21-5.31-1.21-1.76,0-3.13.35-4.11,1.04-.98.69-1.78,1.9-2.39,3.64ZM86.45,68.95c-1.27.42-3.27.93-6.01,1.51-2.74.59-4.54,1.16-5.38,1.72-1.29.91-1.93,2.07-1.93,3.48s.52,2.58,1.55,3.59c1.03,1.01,2.34,1.51,3.94,1.51,1.78,0,3.48-.59,5.1-1.76,1.2-.89,1.98-1.98,2.36-3.27.26-.84.39-2.45.39-4.82v-1.97Z"/>
      <path class="cls-2" d="M105.61,49.54h9.21v5.48c1.2-1.88,2.81-3.4,4.85-4.57,2.04-1.17,4.3-1.76,6.79-1.76,4.34,0,8.02,1.7,11.04,5.1,3.02,3.4,4.54,8.13,4.54,14.2s-1.52,11.08-4.57,14.54c-3.05,3.46-6.74,5.19-11.07,5.19-2.06,0-3.93-.41-5.61-1.23-1.68-.82-3.44-2.23-5.29-4.22v18.81h-9.88v-51.54ZM115.38,67.58c0,4.2.83,7.29,2.5,9.3,1.66,2,3.69,3.01,6.08,3.01s4.21-.92,5.73-2.76c1.52-1.84,2.29-4.86,2.29-9.05,0-3.91-.79-6.82-2.36-8.72-1.57-1.9-3.52-2.85-5.84-2.85s-4.42.93-6.01,2.79c-1.59,1.86-2.39,4.62-2.39,8.28Z"/>
      <path class="cls-1" d="M150.8,86.46v-51.54h15.57l9.35,35.16,9.25-35.16h15.61v51.54h-9.67v-40.57l-10.23,40.57h-10.02l-10.2-40.57v40.57h-9.67Z"/>
      <path class="cls-1" d="M208.56,67.26c0-3.28.81-6.46,2.43-9.53,1.62-3.07,3.91-5.41,6.87-7.03s6.28-2.43,9.93-2.43c5.65,0,10.28,1.83,13.89,5.5,3.61,3.67,5.41,8.3,5.41,13.9s-1.82,10.33-5.47,14.04c-3.64,3.71-8.23,5.57-13.76,5.57-3.42,0-6.69-.77-9.79-2.32s-5.47-3.81-7.08-6.8-2.43-6.63-2.43-10.92ZM218.68,67.79c0,3.7.88,6.54,2.64,8.51s3.93,2.95,6.5,2.95,4.74-.98,6.49-2.95,2.62-4.83,2.62-8.58-.87-6.47-2.62-8.44-3.91-2.95-6.49-2.95-4.75.98-6.5,2.95-2.64,4.8-2.64,8.51Z"/>
      <path class="cls-1" d="M288.78,86.46h-9.88v-19.05c0-4.03-.21-6.64-.63-7.82-.42-1.18-1.11-2.1-2.06-2.76-.95-.66-2.09-.98-3.43-.98-1.71,0-3.25.47-4.61,1.41-1.36.94-2.29,2.18-2.79,3.73s-.76,4.41-.76,8.58v16.91h-9.88v-37.34h9.18v5.48c3.26-4.22,7.36-6.33,12.3-6.33,2.18,0,4.17.39,5.98,1.18,1.8.79,3.17,1.79,4.1,3.01.93,1.22,1.57,2.6,1.93,4.15s.54,3.76.54,6.64v23.2Z"/>
      <path class="cls-1" d="M298.8,44.06v-9.14h9.88v9.14h-9.88ZM298.8,86.46v-37.34h9.88v37.34h-9.88Z"/>
      <path class="cls-1" d="M335.93,49.12v7.88h-6.75v15.05c0,3.05.06,4.82.19,5.33.13.5.42.92.88,1.25.46.33,1.01.49,1.67.49.91,0,2.24-.32,3.97-.95l.84,7.66c-2.3.98-4.9,1.48-7.8,1.48-1.78,0-3.39-.3-4.82-.9s-2.48-1.37-3.15-2.32-1.13-2.23-1.39-3.85c-.21-1.15-.32-3.47-.32-6.96v-16.28h-4.54v-7.88h4.54v-7.42l9.91-5.77v13.18h6.75Z"/>
      <path class="cls-1" d="M340.5,67.26c0-3.28.81-6.46,2.43-9.53,1.62-3.07,3.91-5.41,6.87-7.03s6.28-2.43,9.93-2.43c5.65,0,10.28,1.83,13.89,5.5,3.61,3.67,5.41,8.3,5.41,13.9s-1.82,10.33-5.47,14.04c-3.64,3.71-8.23,5.57-13.76,5.57-3.42,0-6.69-.77-9.79-2.32s-5.47-3.81-7.08-6.8-2.43-6.63-2.43-10.92ZM350.62,67.79c0,3.7.88,6.54,2.64,8.51s3.93,2.95,6.5,2.95,4.74-.98,6.49-2.95,2.62-4.83,2.62-8.58-.87-6.47-2.62-8.44-3.91-2.95-6.49-2.95-4.75.98-6.5,2.95-2.64,4.8-2.64,8.51Z"/>
      <path class="cls-1" d="M396.22,86.46h-9.88v-37.34h9.18v5.31c1.57-2.51,2.98-4.16,4.24-4.96,1.25-.8,2.68-1.2,4.27-1.2,2.25,0,4.42.62,6.5,1.86l-3.06,8.61c-1.66-1.08-3.21-1.62-4.64-1.62s-2.55.38-3.52,1.14c-.96.76-1.72,2.14-2.27,4.13-.55,1.99-.83,6.16-.83,12.52v11.53Z"/>
    </g>
  </g>
</svg>